<?xml version="1.0" encoding="UTF-8" standalone="no"?>
<!-- Created with qrencode 3.4.2 (http://fukuchi.org/works/qrencode/index.html.en) -->

<svg
   xmlns:dc="http://purl.org/dc/elements/1.1/"
   xmlns:cc="http://creativecommons.org/ns#"
   xmlns:rdf="http://www.w3.org/1999/02/22-rdf-syntax-ns#"
   xmlns:svg="http://www.w3.org/2000/svg"
   xmlns="http://www.w3.org/2000/svg"
   xmlns:sodipodi="http://sodipodi.sourceforge.net/DTD/sodipodi-0.dtd"
   xmlns:inkscape="http://www.inkscape.org/namespaces/inkscape"
   width="3.92cm"
   height="3.92cm"
   viewBox="0 0 37 37"
   preserveAspectRatio="none"
   version="1.1"
   id="svg3479"
   inkscape:version="0.48.4 r9939"
   sodipodi:docname="gallery-qrcode.pdf">
  <metadata
     id="metadata3933">
    <rdf:RDF>
      <cc:Work
         rdf:about="">
        <dc:format>image/svg+xml</dc:format>
        <dc:type
           rdf:resource="http://purl.org/dc/dcmitype/StillImage" />
        <dc:title></dc:title>
      </cc:Work>
    </rdf:RDF>
  </metadata>
  <defs
     id="defs3931" />
  <sodipodi:namedview
     pagecolor="#ffffff"
     bordercolor="#666666"
     borderopacity="1"
     objecttolerance="10"
     gridtolerance="10"
     guidetolerance="10"
     inkscape:pageopacity="0"
     inkscape:pageshadow="2"
     inkscape:window-width="1918"
     inkscape:window-height="1059"
     id="namedview3929"
     showgrid="false"
     inkscape:zoom="6.5443875"
     inkscape:cx="69.448822"
     inkscape:cy="69.448822"
     inkscape:window-x="0"
     inkscape:window-y="19"
     inkscape:window-maximized="0"
     inkscape:current-layer="svg3479" />
  <rect
     x="4"
     y="4"
     width="7"
     height="1"
     id="rect3485"
     style="fill:#000000" />
  <rect
     x="13"
     y="4"
     width="3"
     height="1"
     id="rect3487"
     style="fill:#000000" />
  <rect
     x="17"
     y="4"
     width="2"
     height="1"
     id="rect3489"
     style="fill:#000000" />
  <rect
     x="22"
     y="4"
     width="1"
     height="1"
     id="rect3491"
     style="fill:#000000" />
  <rect
     x="24"
     y="4"
     width="1"
     height="1"
     id="rect3493"
     style="fill:#000000" />
  <rect
     x="26"
     y="4"
     width="7"
     height="1"
     id="rect3495"
     style="fill:#000000" />
  <rect
     x="4"
     y="5"
     width="1"
     height="1"
     id="rect3497"
     style="fill:#000000" />
  <rect
     x="10"
     y="5"
     width="1"
     height="1"
     id="rect3499"
     style="fill:#000000" />
  <rect
     x="15"
     y="5"
     width="2"
     height="1"
     id="rect3501"
     style="fill:#000000" />
  <rect
     x="20"
     y="5"
     width="2"
     height="1"
     id="rect3503"
     style="fill:#000000" />
  <rect
     x="26"
     y="5"
     width="1"
     height="1"
     id="rect3505"
     style="fill:#000000" />
  <rect
     x="32"
     y="5"
     width="1"
     height="1"
     id="rect3507"
     style="fill:#000000" />
  <rect
     x="4"
     y="6"
     width="1"
     height="1"
     id="rect3509"
     style="fill:#000000" />
  <rect
     x="6"
     y="6"
     width="3"
     height="1"
     id="rect3511"
     style="fill:#000000" />
  <rect
     x="10"
     y="6"
     width="1"
     height="1"
     id="rect3513"
     style="fill:#000000" />
  <rect
     x="13"
     y="6"
     width="3"
     height="1"
     id="rect3515"
     style="fill:#000000" />
  <rect
     x="18"
     y="6"
     width="1"
     height="1"
     id="rect3517"
     style="fill:#000000" />
  <rect
     x="20"
     y="6"
     width="1"
     height="1"
     id="rect3519"
     style="fill:#000000" />
  <rect
     x="22"
     y="6"
     width="3"
     height="1"
     id="rect3521"
     style="fill:#000000" />
  <rect
     x="26"
     y="6"
     width="1"
     height="1"
     id="rect3523"
     style="fill:#000000" />
  <rect
     x="28"
     y="6"
     width="3"
     height="1"
     id="rect3525"
     style="fill:#000000" />
  <rect
     x="32"
     y="6"
     width="1"
     height="1"
     id="rect3527"
     style="fill:#000000" />
  <rect
     x="4"
     y="7"
     width="1"
     height="1"
     id="rect3529"
     style="fill:#000000" />
  <rect
     x="6"
     y="7"
     width="3"
     height="1"
     id="rect3531"
     style="fill:#000000" />
  <rect
     x="10"
     y="7"
     width="1"
     height="1"
     id="rect3533"
     style="fill:#000000" />
  <rect
     x="12"
     y="7"
     width="1"
     height="1"
     id="rect3535"
     style="fill:#000000" />
  <rect
     x="14"
     y="7"
     width="2"
     height="1"
     id="rect3537"
     style="fill:#000000" />
  <rect
     x="17"
     y="7"
     width="1"
     height="1"
     id="rect3539"
     style="fill:#000000" />
  <rect
     x="20"
     y="7"
     width="2"
     height="1"
     id="rect3541"
     style="fill:#000000" />
  <rect
     x="23"
     y="7"
     width="2"
     height="1"
     id="rect3543"
     style="fill:#000000" />
  <rect
     x="26"
     y="7"
     width="1"
     height="1"
     id="rect3545"
     style="fill:#000000" />
  <rect
     x="28"
     y="7"
     width="3"
     height="1"
     id="rect3547"
     style="fill:#000000" />
  <rect
     x="32"
     y="7"
     width="1"
     height="1"
     id="rect3549"
     style="fill:#000000" />
  <rect
     x="4"
     y="8"
     width="1"
     height="1"
     id="rect3551"
     style="fill:#000000" />
  <rect
     x="6"
     y="8"
     width="3"
     height="1"
     id="rect3553"
     style="fill:#000000" />
  <rect
     x="10"
     y="8"
     width="1"
     height="1"
     id="rect3555"
     style="fill:#000000" />
  <rect
     x="12"
     y="8"
     width="1"
     height="1"
     id="rect3557"
     style="fill:#000000" />
  <rect
     x="14"
     y="8"
     width="1"
     height="1"
     id="rect3559"
     style="fill:#000000" />
  <rect
     x="16"
     y="8"
     width="2"
     height="1"
     id="rect3561"
     style="fill:#000000" />
  <rect
     x="20"
     y="8"
     width="1"
     height="1"
     id="rect3563"
     style="fill:#000000" />
  <rect
     x="22"
     y="8"
     width="3"
     height="1"
     id="rect3565"
     style="fill:#000000" />
  <rect
     x="26"
     y="8"
     width="1"
     height="1"
     id="rect3567"
     style="fill:#000000" />
  <rect
     x="28"
     y="8"
     width="3"
     height="1"
     id="rect3569"
     style="fill:#000000" />
  <rect
     x="32"
     y="8"
     width="1"
     height="1"
     id="rect3571"
     style="fill:#000000" />
  <rect
     x="4"
     y="9"
     width="1"
     height="1"
     id="rect3573"
     style="fill:#000000" />
  <rect
     x="10"
     y="9"
     width="1"
     height="1"
     id="rect3575"
     style="fill:#000000" />
  <rect
     x="13"
     y="9"
     width="2"
     height="1"
     id="rect3577"
     style="fill:#000000" />
  <rect
     x="18"
     y="9"
     width="1"
     height="1"
     id="rect3579"
     style="fill:#000000" />
  <rect
     x="20"
     y="9"
     width="3"
     height="1"
     id="rect3581"
     style="fill:#000000" />
  <rect
     x="24"
     y="9"
     width="1"
     height="1"
     id="rect3583"
     style="fill:#000000" />
  <rect
     x="26"
     y="9"
     width="1"
     height="1"
     id="rect3585"
     style="fill:#000000" />
  <rect
     x="32"
     y="9"
     width="1"
     height="1"
     id="rect3587"
     style="fill:#000000" />
  <rect
     x="4"
     y="10"
     width="7"
     height="1"
     id="rect3589"
     style="fill:#000000" />
  <rect
     x="12"
     y="10"
     width="1"
     height="1"
     id="rect3591"
     style="fill:#000000" />
  <rect
     x="14"
     y="10"
     width="1"
     height="1"
     id="rect3593"
     style="fill:#000000" />
  <rect
     x="16"
     y="10"
     width="1"
     height="1"
     id="rect3595"
     style="fill:#000000" />
  <rect
     x="18"
     y="10"
     width="1"
     height="1"
     id="rect3597"
     style="fill:#000000" />
  <rect
     x="20"
     y="10"
     width="1"
     height="1"
     id="rect3599"
     style="fill:#000000" />
  <rect
     x="22"
     y="10"
     width="1"
     height="1"
     id="rect3601"
     style="fill:#000000" />
  <rect
     x="24"
     y="10"
     width="1"
     height="1"
     id="rect3603"
     style="fill:#000000" />
  <rect
     x="26"
     y="10"
     width="7"
     height="1"
     id="rect3605"
     style="fill:#000000" />
  <rect
     x="13"
     y="11"
     width="1"
     height="1"
     id="rect3607"
     style="fill:#000000" />
  <rect
     x="16"
     y="11"
     width="1"
     height="1"
     id="rect3609"
     style="fill:#000000" />
  <rect
     x="19"
     y="11"
     width="2"
     height="1"
     id="rect3611"
     style="fill:#000000" />
  <rect
     x="23"
     y="11"
     width="2"
     height="1"
     id="rect3613"
     style="fill:#000000" />
  <rect
     x="4"
     y="12"
     width="2"
     height="1"
     id="rect3615"
     style="fill:#000000" />
  <rect
     x="9"
     y="12"
     width="3"
     height="1"
     id="rect3617"
     style="fill:#000000" />
  <rect
     x="13"
     y="12"
     width="2"
     height="1"
     id="rect3619"
     style="fill:#000000" />
  <rect
     x="16"
     y="12"
     width="3"
     height="1"
     id="rect3621"
     style="fill:#000000" />
  <rect
     x="21"
     y="12"
     width="1"
     height="1"
     id="rect3623"
     style="fill:#000000" />
  <rect
     x="23"
     y="12"
     width="1"
     height="1"
     id="rect3625"
     style="fill:#000000" />
  <rect
     x="28"
     y="12"
     width="2"
     height="1"
     id="rect3627"
     style="fill:#000000" />
  <rect
     x="5"
     y="13"
     width="1"
     height="1"
     id="rect3629"
     style="fill:#000000" />
  <rect
     x="7"
     y="13"
     width="1"
     height="1"
     id="rect3631"
     style="fill:#000000" />
  <rect
     x="9"
     y="13"
     width="1"
     height="1"
     id="rect3633"
     style="fill:#000000" />
  <rect
     x="12"
     y="13"
     width="1"
     height="1"
     id="rect3635"
     style="fill:#000000" />
  <rect
     x="14"
     y="13"
     width="1"
     height="1"
     id="rect3637"
     style="fill:#000000" />
  <rect
     x="17"
     y="13"
     width="7"
     height="1"
     id="rect3639"
     style="fill:#000000" />
  <rect
     x="27"
     y="13"
     width="2"
     height="1"
     id="rect3641"
     style="fill:#000000" />
  <rect
     x="30"
     y="13"
     width="2"
     height="1"
     id="rect3643"
     style="fill:#000000" />
  <rect
     x="4"
     y="14"
     width="1"
     height="1"
     id="rect3645"
     style="fill:#000000" />
  <rect
     x="6"
     y="14"
     width="1"
     height="1"
     id="rect3647"
     style="fill:#000000" />
  <rect
     x="9"
     y="14"
     width="2"
     height="1"
     id="rect3649"
     style="fill:#000000" />
  <rect
     x="12"
     y="14"
     width="2"
     height="1"
     id="rect3651"
     style="fill:#000000" />
  <rect
     x="15"
     y="14"
     width="2"
     height="1"
     id="rect3653"
     style="fill:#000000" />
  <rect
     x="18"
     y="14"
     width="2"
     height="1"
     id="rect3655"
     style="fill:#000000" />
  <rect
     x="21"
     y="14"
     width="1"
     height="1"
     id="rect3657"
     style="fill:#000000" />
  <rect
     x="24"
     y="14"
     width="1"
     height="1"
     id="rect3659"
     style="fill:#000000" />
  <rect
     x="26"
     y="14"
     width="3"
     height="1"
     id="rect3661"
     style="fill:#000000" />
  <rect
     x="4"
     y="15"
     width="2"
     height="1"
     id="rect3663"
     style="fill:#000000" />
  <rect
     x="7"
     y="15"
     width="3"
     height="1"
     id="rect3665"
     style="fill:#000000" />
  <rect
     x="11"
     y="15"
     width="2"
     height="1"
     id="rect3667"
     style="fill:#000000" />
  <rect
     x="14"
     y="15"
     width="2"
     height="1"
     id="rect3669"
     style="fill:#000000" />
  <rect
     x="20"
     y="15"
     width="1"
     height="1"
     id="rect3671"
     style="fill:#000000" />
  <rect
     x="24"
     y="15"
     width="1"
     height="1"
     id="rect3673"
     style="fill:#000000" />
  <rect
     x="26"
     y="15"
     width="1"
     height="1"
     id="rect3675"
     style="fill:#000000" />
  <rect
     x="4"
     y="16"
     width="2"
     height="1"
     id="rect3677"
     style="fill:#000000" />
  <rect
     x="7"
     y="16"
     width="1"
     height="1"
     id="rect3679"
     style="fill:#000000" />
  <rect
     x="9"
     y="16"
     width="2"
     height="1"
     id="rect3681"
     style="fill:#000000" />
  <rect
     x="13"
     y="16"
     width="2"
     height="1"
     id="rect3683"
     style="fill:#000000" />
  <rect
     x="16"
     y="16"
     width="1"
     height="1"
     id="rect3685"
     style="fill:#000000" />
  <rect
     x="19"
     y="16"
     width="1"
     height="1"
     id="rect3687"
     style="fill:#000000" />
  <rect
     x="24"
     y="16"
     width="1"
     height="1"
     id="rect3689"
     style="fill:#000000" />
  <rect
     x="26"
     y="16"
     width="2"
     height="1"
     id="rect3691"
     style="fill:#000000" />
  <rect
     x="32"
     y="16"
     width="1"
     height="1"
     id="rect3693"
     style="fill:#000000" />
  <rect
     x="6"
     y="17"
     width="1"
     height="1"
     id="rect3695"
     style="fill:#000000" />
  <rect
     x="11"
     y="17"
     width="2"
     height="1"
     id="rect3697"
     style="fill:#000000" />
  <rect
     x="14"
     y="17"
     width="1"
     height="1"
     id="rect3699"
     style="fill:#000000" />
  <rect
     x="16"
     y="17"
     width="1"
     height="1"
     id="rect3701"
     style="fill:#000000" />
  <rect
     x="19"
     y="17"
     width="6"
     height="1"
     id="rect3703"
     style="fill:#000000" />
  <rect
     x="26"
     y="17"
     width="3"
     height="1"
     id="rect3705"
     style="fill:#000000" />
  <rect
     x="30"
     y="17"
     width="3"
     height="1"
     id="rect3707"
     style="fill:#000000" />
  <rect
     x="4"
     y="18"
     width="1"
     height="1"
     id="rect3709"
     style="fill:#000000" />
  <rect
     x="6"
     y="18"
     width="2"
     height="1"
     id="rect3711"
     style="fill:#000000" />
  <rect
     x="9"
     y="18"
     width="3"
     height="1"
     id="rect3713"
     style="fill:#000000" />
  <rect
     x="16"
     y="18"
     width="1"
     height="1"
     id="rect3715"
     style="fill:#000000" />
  <rect
     x="18"
     y="18"
     width="2"
     height="1"
     id="rect3717"
     style="fill:#000000" />
  <rect
     x="28"
     y="18"
     width="1"
     height="1"
     id="rect3719"
     style="fill:#000000" />
  <rect
     x="30"
     y="18"
     width="1"
     height="1"
     id="rect3721"
     style="fill:#000000" />
  <rect
     x="4"
     y="19"
     width="1"
     height="1"
     id="rect3723"
     style="fill:#000000" />
  <rect
     x="7"
     y="19"
     width="1"
     height="1"
     id="rect3725"
     style="fill:#000000" />
  <rect
     x="14"
     y="19"
     width="1"
     height="1"
     id="rect3727"
     style="fill:#000000" />
  <rect
     x="19"
     y="19"
     width="1"
     height="1"
     id="rect3729"
     style="fill:#000000" />
  <rect
     x="23"
     y="19"
     width="1"
     height="1"
     id="rect3731"
     style="fill:#000000" />
  <rect
     x="25"
     y="19"
     width="1"
     height="1"
     id="rect3733"
     style="fill:#000000" />
  <rect
     x="27"
     y="19"
     width="2"
     height="1"
     id="rect3735"
     style="fill:#000000" />
  <rect
     x="30"
     y="19"
     width="1"
     height="1"
     id="rect3737"
     style="fill:#000000" />
  <rect
     x="32"
     y="19"
     width="1"
     height="1"
     id="rect3739"
     style="fill:#000000" />
  <rect
     x="8"
     y="20"
     width="1"
     height="1"
     id="rect3741"
     style="fill:#000000" />
  <rect
     x="10"
     y="20"
     width="2"
     height="1"
     id="rect3743"
     style="fill:#000000" />
  <rect
     x="14"
     y="20"
     width="5"
     height="1"
     id="rect3745"
     style="fill:#000000" />
  <rect
     x="21"
     y="20"
     width="2"
     height="1"
     id="rect3747"
     style="fill:#000000" />
  <rect
     x="25"
     y="20"
     width="1"
     height="1"
     id="rect3749"
     style="fill:#000000" />
  <rect
     x="30"
     y="20"
     width="1"
     height="1"
     id="rect3751"
     style="fill:#000000" />
  <rect
     x="4"
     y="21"
     width="1"
     height="1"
     id="rect3753"
     style="fill:#000000" />
  <rect
     x="6"
     y="21"
     width="3"
     height="1"
     id="rect3755"
     style="fill:#000000" />
  <rect
     x="12"
     y="21"
     width="1"
     height="1"
     id="rect3757"
     style="fill:#000000" />
  <rect
     x="14"
     y="21"
     width="2"
     height="1"
     id="rect3759"
     style="fill:#000000" />
  <rect
     x="18"
     y="21"
     width="7"
     height="1"
     id="rect3761"
     style="fill:#000000" />
  <rect
     x="26"
     y="21"
     width="7"
     height="1"
     id="rect3763"
     style="fill:#000000" />
  <rect
     x="4"
     y="22"
     width="2"
     height="1"
     id="rect3765"
     style="fill:#000000" />
  <rect
     x="7"
     y="22"
     width="1"
     height="1"
     id="rect3767"
     style="fill:#000000" />
  <rect
     x="10"
     y="22"
     width="2"
     height="1"
     id="rect3769"
     style="fill:#000000" />
  <rect
     x="13"
     y="22"
     width="3"
     height="1"
     id="rect3771"
     style="fill:#000000" />
  <rect
     x="18"
     y="22"
     width="2"
     height="1"
     id="rect3773"
     style="fill:#000000" />
  <rect
     x="23"
     y="22"
     width="2"
     height="1"
     id="rect3775"
     style="fill:#000000" />
  <rect
     x="27"
     y="22"
     width="2"
     height="1"
     id="rect3777"
     style="fill:#000000" />
  <rect
     x="32"
     y="22"
     width="1"
     height="1"
     id="rect3779"
     style="fill:#000000" />
  <rect
     x="4"
     y="23"
     width="1"
     height="1"
     id="rect3781"
     style="fill:#000000" />
  <rect
     x="6"
     y="23"
     width="2"
     height="1"
     id="rect3783"
     style="fill:#000000" />
  <rect
     x="9"
     y="23"
     width="1"
     height="1"
     id="rect3785"
     style="fill:#000000" />
  <rect
     x="11"
     y="23"
     width="1"
     height="1"
     id="rect3787"
     style="fill:#000000" />
  <rect
     x="13"
     y="23"
     width="1"
     height="1"
     id="rect3789"
     style="fill:#000000" />
  <rect
     x="20"
     y="23"
     width="1"
     height="1"
     id="rect3791"
     style="fill:#000000" />
  <rect
     x="23"
     y="23"
     width="1"
     height="1"
     id="rect3793"
     style="fill:#000000" />
  <rect
     x="26"
     y="23"
     width="3"
     height="1"
     id="rect3795"
     style="fill:#000000" />
  <rect
     x="4"
     y="24"
     width="1"
     height="1"
     id="rect3797"
     style="fill:#000000" />
  <rect
     x="6"
     y="24"
     width="1"
     height="1"
     id="rect3799"
     style="fill:#000000" />
  <rect
     x="9"
     y="24"
     width="2"
     height="1"
     id="rect3801"
     style="fill:#000000" />
  <rect
     x="15"
     y="24"
     width="5"
     height="1"
     id="rect3803"
     style="fill:#000000" />
  <rect
     x="21"
     y="24"
     width="1"
     height="1"
     id="rect3805"
     style="fill:#000000" />
  <rect
     x="24"
     y="24"
     width="5"
     height="1"
     id="rect3807"
     style="fill:#000000" />
  <rect
     x="30"
     y="24"
     width="3"
     height="1"
     id="rect3809"
     style="fill:#000000" />
  <rect
     x="12"
     y="25"
     width="1"
     height="1"
     id="rect3811"
     style="fill:#000000" />
  <rect
     x="14"
     y="25"
     width="2"
     height="1"
     id="rect3813"
     style="fill:#000000" />
  <rect
     x="17"
     y="25"
     width="1"
     height="1"
     id="rect3815"
     style="fill:#000000" />
  <rect
     x="19"
     y="25"
     width="1"
     height="1"
     id="rect3817"
     style="fill:#000000" />
  <rect
     x="22"
     y="25"
     width="3"
     height="1"
     id="rect3819"
     style="fill:#000000" />
  <rect
     x="28"
     y="25"
     width="2"
     height="1"
     id="rect3821"
     style="fill:#000000" />
  <rect
     x="4"
     y="26"
     width="7"
     height="1"
     id="rect3823"
     style="fill:#000000" />
  <rect
     x="12"
     y="26"
     width="1"
     height="1"
     id="rect3825"
     style="fill:#000000" />
  <rect
     x="16"
     y="26"
     width="1"
     height="1"
     id="rect3827"
     style="fill:#000000" />
  <rect
     x="19"
     y="26"
     width="1"
     height="1"
     id="rect3829"
     style="fill:#000000" />
  <rect
     x="21"
     y="26"
     width="4"
     height="1"
     id="rect3831"
     style="fill:#000000" />
  <rect
     x="26"
     y="26"
     width="1"
     height="1"
     id="rect3833"
     style="fill:#000000" />
  <rect
     x="28"
     y="26"
     width="3"
     height="1"
     id="rect3835"
     style="fill:#000000" />
  <rect
     x="4"
     y="27"
     width="1"
     height="1"
     id="rect3837"
     style="fill:#000000" />
  <rect
     x="10"
     y="27"
     width="1"
     height="1"
     id="rect3839"
     style="fill:#000000" />
  <rect
     x="12"
     y="27"
     width="1"
     height="1"
     id="rect3841"
     style="fill:#000000" />
  <rect
     x="18"
     y="27"
     width="1"
     height="1"
     id="rect3843"
     style="fill:#000000" />
  <rect
     x="20"
     y="27"
     width="1"
     height="1"
     id="rect3845"
     style="fill:#000000" />
  <rect
     x="23"
     y="27"
     width="2"
     height="1"
     id="rect3847"
     style="fill:#000000" />
  <rect
     x="28"
     y="27"
     width="2"
     height="1"
     id="rect3849"
     style="fill:#000000" />
  <rect
     x="31"
     y="27"
     width="2"
     height="1"
     id="rect3851"
     style="fill:#000000" />
  <rect
     x="4"
     y="28"
     width="1"
     height="1"
     id="rect3853"
     style="fill:#000000" />
  <rect
     x="6"
     y="28"
     width="3"
     height="1"
     id="rect3855"
     style="fill:#000000" />
  <rect
     x="10"
     y="28"
     width="1"
     height="1"
     id="rect3857"
     style="fill:#000000" />
  <rect
     x="15"
     y="28"
     width="1"
     height="1"
     id="rect3859"
     style="fill:#000000" />
  <rect
     x="18"
     y="28"
     width="2"
     height="1"
     id="rect3861"
     style="fill:#000000" />
  <rect
     x="23"
     y="28"
     width="6"
     height="1"
     id="rect3863"
     style="fill:#000000" />
  <rect
     x="4"
     y="29"
     width="1"
     height="1"
     id="rect3865"
     style="fill:#000000" />
  <rect
     x="6"
     y="29"
     width="3"
     height="1"
     id="rect3867"
     style="fill:#000000" />
  <rect
     x="10"
     y="29"
     width="1"
     height="1"
     id="rect3869"
     style="fill:#000000" />
  <rect
     x="13"
     y="29"
     width="3"
     height="1"
     id="rect3871"
     style="fill:#000000" />
  <rect
     x="17"
     y="29"
     width="1"
     height="1"
     id="rect3873"
     style="fill:#000000" />
  <rect
     x="19"
     y="29"
     width="5"
     height="1"
     id="rect3875"
     style="fill:#000000" />
  <rect
     x="25"
     y="29"
     width="1"
     height="1"
     id="rect3877"
     style="fill:#000000" />
  <rect
     x="29"
     y="29"
     width="1"
     height="1"
     id="rect3879"
     style="fill:#000000" />
  <rect
     x="32"
     y="29"
     width="1"
     height="1"
     id="rect3881"
     style="fill:#000000" />
  <rect
     x="4"
     y="30"
     width="1"
     height="1"
     id="rect3883"
     style="fill:#000000" />
  <rect
     x="6"
     y="30"
     width="3"
     height="1"
     id="rect3885"
     style="fill:#000000" />
  <rect
     x="10"
     y="30"
     width="1"
     height="1"
     id="rect3887"
     style="fill:#000000" />
  <rect
     x="14"
     y="30"
     width="1"
     height="1"
     id="rect3889"
     style="fill:#000000" />
  <rect
     x="16"
     y="30"
     width="4"
     height="1"
     id="rect3891"
     style="fill:#000000" />
  <rect
     x="21"
     y="30"
     width="1"
     height="1"
     id="rect3893"
     style="fill:#000000" />
  <rect
     x="23"
     y="30"
     width="1"
     height="1"
     id="rect3895"
     style="fill:#000000" />
  <rect
     x="25"
     y="30"
     width="7"
     height="1"
     id="rect3897"
     style="fill:#000000" />
  <rect
     x="4"
     y="31"
     width="1"
     height="1"
     id="rect3899"
     style="fill:#000000" />
  <rect
     x="10"
     y="31"
     width="1"
     height="1"
     id="rect3901"
     style="fill:#000000" />
  <rect
     x="12"
     y="31"
     width="1"
     height="1"
     id="rect3903"
     style="fill:#000000" />
  <rect
     x="14"
     y="31"
     width="1"
     height="1"
     id="rect3905"
     style="fill:#000000" />
  <rect
     x="16"
     y="31"
     width="1"
     height="1"
     id="rect3907"
     style="fill:#000000" />
  <rect
     x="18"
     y="31"
     width="2"
     height="1"
     id="rect3909"
     style="fill:#000000" />
  <rect
     x="23"
     y="31"
     width="1"
     height="1"
     id="rect3911"
     style="fill:#000000" />
  <rect
     x="25"
     y="31"
     width="6"
     height="1"
     id="rect3913"
     style="fill:#000000" />
  <rect
     x="32"
     y="31"
     width="1"
     height="1"
     id="rect3915"
     style="fill:#000000" />
  <rect
     x="4"
     y="32"
     width="7"
     height="1"
     id="rect3917"
     style="fill:#000000" />
  <rect
     x="12"
     y="32"
     width="7"
     height="1"
     id="rect3919"
     style="fill:#000000" />
  <rect
     x="21"
     y="32"
     width="1"
     height="1"
     id="rect3921"
     style="fill:#000000" />
  <rect
     x="23"
     y="32"
     width="1"
     height="1"
     id="rect3923"
     style="fill:#000000" />
  <rect
     x="25"
     y="32"
     width="4"
     height="1"
     id="rect3925"
     style="fill:#000000" />
  <rect
     x="30"
     y="32"
     width="1"
     height="1"
     id="rect3927"
     style="fill:#000000" />
</svg>
